<?xml version="1.0" encoding="UTF-8"?><svg id="Layer_2" xmlns="http://www.w3.org/2000/svg" viewBox="0 0 419.45 135.83"><g id="Layer_1-2"><g id="GUIDES"><path d="M419.45,0l-87.59,135.48-164.63-32.51L0,129.54,45.09,59.91c1.4,.84,3.15,1.4,5.1,1.68L11.12,122.34l156.38-24.82,161.77,32.02,33.98-52.5h.28c2.87,0,5.1-1.12,6.29-2.03l-1.12-2.31-2.03-1.4L407.77,7.69,201.75,47.61c1.4-2.59,2.87-4.82,3.71-6.29L419.45,0Zm-134.08,52.78c2.59,0,4.54-2.59,4.54-5.1,0-2.31-1.4-3.15-3.15-3.15-2.87,0-4.82,2.87-4.82,5.1,0,1.68,1.12,3.15,3.43,3.15ZM59.91,34.81h1.4L82.98,1.75l110.17,42.22c.28-.28,.28-.56,.56-.84,1.4-2.59,2.59-4.26,2.59-4.26l8.25-.56c-6.01,10-17.41,28.52-18.25,29.99-4.82,8.25-7.13,12.3-7.13,14.54,0,.84,.28,1.4,1.12,1.4,2.59,0,7.97-3.98,18.81-17.69,.84-1.12,3.43-4.82,4.54-6.29l7.69-.28c-4.26,6.57-10.28,15.38-12.86,19.99-1.12,1.68-1.68,2.87-1.68,3.43,0,.84,.56,1.12,1.12,1.12,2.87,0,8.53-4.54,16.57-16.01,2.03-2.87,3.43-5.1,5.45-7.97l7.69-.28c-2.31,3.43-6.57,10.56-7.13,11.39-3.71,6.01-5.73,9.72-5.73,11.39,0,.84,.28,1.4,1.4,1.4,5.73,0,13.42-10.28,15.38-15.66,0-3.71,.56-6.85,2.03-8.53,.56-.84,1.4-1.68,3.15-1.68,1.12,0,2.03,.56,2.03,1.4,0,1.4-1.68,5.45-4.54,10.28,.84,2.03,2.59,3.15,4.54,3.71,3.15-5.73,10.28-15.1,19.71-15.1,3.43,0,4.82,1.12,4.82,3.71,0,4.82-7.41,11.67-17.69,13.14-.84,1.68-1.68,3.71-1.68,5.73,0,1.68,.84,3.15,3.43,3.15,8.25,0,18.25-12.58,23.7-19.71,.28-.56,2.59-3.43,3.15-4.26l7.69-.56c-6.57,10.28-8.53,13.7-8.53,13.7-2.03,3.43-4.54,7.69-4.54,9.16,0,.84,.56,1.4,1.4,1.4,3.15,0,8.88-5.1,16.85-13.42,3.43-3.43,7.13-7.41,9.72-10.28,.84-3.15,2.59-4.54,4.54-4.54,1.68,0,2.31,.84,2.31,2.31,0,1.68-1.4,2.87-2.87,3.15v1.4c0,3.15,.28,5.45,.28,8.88,0,3.15-.56,6.01-2.31,8.88,3.98-3.15,11.95-10.84,16.85-15.1,4.82-4.54,9.72-6.29,13.42-6.29,3.15,0,4.82,1.12,4.82,3.71,0,6.29-10.56,12.3-17.69,13.14-.84,1.4-1.68,3.98-1.68,6.01,0,1.68,1.12,2.87,2.87,2.87,5.73,0,11.39-6.01,16.01-11.39,7.13-8.88,10.28-13.7,15.66-13.7,2.87,0,4.26,1.4,4.26,3.43,0,2.59-1.12,4.82-3.71,9.44,8.25-10.56,12.3-12.86,15.1-12.86,2.03,0,3.43,1.12,3.43,2.59-2.87,.84-5.73,4.82-5.73,7.69,0,.84,.28,1.4,.56,2.03,.28,.28,.84,.56,1.68,.56s1.68-.28,2.87-.84l.56,1.4c-1.4,.84-2.87,1.12-4.82,1.12-3.71,0-5.73-1.68-5.73-4.54,0-1.68,.84-3.71,2.03-5.45-4.82,4.26-14.82,17.13-18.25,22.86l-7.69,.28c1.12-1.68,7.69-11.39,12.3-19.43,1.4-2.59,2.31-3.71,2.31-4.82,0-.56-.28-.84-.84-.84-2.59,0-6.57,5.1-11.95,11.95-3.98,5.1-11.12,13.7-20.55,13.7-4.82,0-7.13-2.59-7.13-6.01,0-3.15,1.12-6.01,2.87-8.53-2.31,2.03-4.54,3.98-6.85,6.01-4.26,3.98-10,8.53-17.69,8.53-3.98,0-6.29-1.68-6.29-3.71,0-1.12,.84-2.03,1.68-2.03,2.59,0,1.68,3.71,5.1,3.71,3.98,0,7.13-3.71,9.16-15.1,.28-1.4,.84-4.54,1.4-6.57-6.01,6.29-10.28,10.56-11.95,12.58-5.1,5.1-11.12,10.84-16.85,10.84-3.15,0-5.1-1.68-5.1-4.26,0-1.68,.84-3.98,2.87-7.97-4.54,4.82-11.67,12.3-20.55,12.3-5.1,0-7.41-2.59-7.41-6.29,0-1.68,.56-3.71,1.4-5.73-2.03-.56-3.71-1.68-4.82-3.43-2.31,3.71-5.1,7.41-9.16,10.84-3.98,3.71-7.69,4.82-10.84,4.82s-5.1-1.4-5.1-4.26c0-2.03,1.12-4.26,2.03-6.29-4.26,5.1-9.72,10.56-15.66,10.56-2.59,0-4.82-1.12-4.82-4.26,0-2.03,1.12-3.98,2.87-7.13-3.71,3.98-9.72,11.39-16.57,11.39-3.15,0-4.82-1.68-4.82-4.26,0-2.31,1.12-4.54,2.03-6.29-.84,1.12-1.68,2.03-2.31,2.87-4.82,5.45-8.88,7.69-13.14,7.69-3.15,0-5.1-1.68-5.1-4.82,0-1.4,.56-3.43,1.12-4.82-4.54,4.82-9.72,9.72-15.38,9.72-3.15,0-4.54-1.68-4.54-3.98,0-1.4,.56-3.15,1.68-5.45l-1.68,1.68c-3.98,3.98-8.88,7.41-13.42,7.41-2.87,0-4.82-1.4-4.82-4.26,0-2.03,1.4-5.45,5.1-10.56l-2.31,2.31c-11.39,10.84-22.86,17.41-35.09,17.41-9.16,0-11.95-3.98-11.95-8.88,0-1.12,.28-2.31,.28-2.31l-1.68,2.03c-4.54,5.73-7.97,8.88-12.58,8.88-3.71,0-6.85-1.68-6.85-5.1,0-2.03,1.12-3.98,2.59-6.57,3.15-5.1,11.67-17.69,17.97-26.84-3.98,2.59-9.72,4.54-17.13,4.54-10.56,0-15.66-4.26-15.66-10.56-.56-7.48,7.13-12.86,20.27-13.14Zm256.84,39.08c6.01-.84,13.42-7.13,13.42-11.67,0-.84-.28-1.4-1.12-1.4-3.5,.21-7.76,4.75-12.3,13.07Zm-69.91,0c6.01-.84,13.42-6.85,13.42-11.67,0-.84-.56-1.4-1.4-1.4-3.78,.21-8.32,6.5-12.02,13.07Zm-168.69-5.45c5.73-8.25,11.39-17.13,15.1-22.51-1.68-.84-3.43-1.68-4.82-2.59-2.03,2.59-25.66,37.68-27.4,40.55-1.4,2.31-1.68,3.43-1.68,3.98s.28,1.12,1.12,1.12,2.03-.56,3.43-1.68c3.43-2.87,8.04-9.44,14.26-18.88Zm11.46-7.69l1.68-2.87c5.45,0,9.72,0,12.58-1.4,6.85-3.15,10.28-10.84,10.28-14.54,0-2.59-1.12-4.82-4.54-4.82-5.1,0-10,5.1-12.86,8.88,2.59,1.4,4.54,2.87,5.73,3.98l-.84,1.4c-1.68-1.4-3.71-2.59-5.73-3.98-3.43,4.26-10.84,16.01-16.01,23.42,3.43-2.31,7.69-2.87,10.56-2.87v2.03c-10,.28-16.01,6.85-16.01,13.7,0,3.71,2.03,6.29,7.41,6.29,12.58,0,20.83-13.42,20.83-21.95,0-3.98-1.4-7.41-7.69-7.41h-2.87c-1.12-.14-1.96,.14-2.52,.14Zm90.74,3.15c0-1.4-1.12-2.59-2.87-2.59-3.15,0-6.01,2.03-10.28,7.13-3.43,4.54-7.13,11.12-7.13,13.98,0,.84,.28,1.68,1.68,1.68s3.98-1.12,7.69-5.1c3.43-3.71,7.41-8.88,10.28-13.98,.63-.28,.63-.84,.63-1.12Zm-112.76-28.52c1.12,0,2.59,.28,3.71,.56,4.54,.84,8.25,2.03,11.67,3.15,.56-.84,1.12-1.68,1.68-2.59l9.16-.28c-.84,1.12-2.31,3.43-4.26,5.73,1.68,.84,3.43,1.68,5.1,2.59,5.73-7.13,11.12-10.56,17.97-10.56,7.41,0,10.28,4.26,10.28,8.53,0,3.98-2.31,8.53-5.1,11.12-3.71,3.71-8.88,5.45-12.86,6.29,2.31,1.12,6.29,3.15,6.29,9.72,0,5.45-3.15,10.56-6.57,14.54,6.85-3.98,16.57-13.14,20.83-18.53,.84-1.12,2.87-3.71,3.71-5.1l7.97-.56s-10.28,15.38-12.58,19.43c-1.12,2.31-1.68,3.15-1.68,3.71s.28,1.12,1.12,1.12c3.15,0,9.16-5.1,13.14-10.84,2.03-2.59,8.88-12.86,8.88-12.86l8.25-.56c-6.57,10.28-8.88,13.7-8.88,13.7-2.31,3.43-3.98,6.57-4.26,8.25-.28,.56-.28,.84-.28,1.12,0,.84,.28,1.12,1.12,1.12,4.82,0,13.42-11.12,16.01-14.54,4.82-6.29,11.12-10.56,17.69-10.56,2.87,0,4.82,1.12,5.73,3.15,1.68-2.87,4.82-7.69,7.41-12.3,.28-.56,.56-.84,.84-1.12L84.94,8.25l-17.34,27.12Zm-25.1,13.07c0,2.03,.56,3.71,2.03,5.1,.84,.84,2.03,1.68,3.43,2.03l10.28-15.66c1.12,0,2.59-.28,3.98-.28h2.59l-10.84,16.85h4.26c10.28-.84,16.57-6.29,18.81-9.16,0,0,4.82-6.85,5.1-7.13-4.82-1.68-11.67-3.71-19.99-3.71-12.51,.56-19.64,5.45-19.64,11.95Zm304.45,84.24c0,.84-.28,1.68-.84,2.31-.56,.56-1.4,.84-2.31,.84-.84,0-1.68-.28-2.31-.84-.56-.56-.84-1.4-.84-2.31s.28-1.68,.84-2.31c.56-.56,1.4-.84,2.31-.84,.84,0,1.68,.28,2.31,.84,.56,.56,.84,1.12,.84,2.31Zm-.56,0c0-.84-.28-1.4-.84-2.03-.56-.56-1.12-.84-2.03-.84-.84,0-1.4,.28-2.03,.84-.56,.56-.84,1.12-.84,2.03s.28,1.4,.84,2.03c.56,.56,1.12,.84,2.03,.84s1.4-.28,2.03-.84c.56-.63,.84-1.47,.84-2.03Zm-1.12,1.68h-.84l-.56-1.4h-.84v1.4h-.84v-3.98h1.68c.56,0,.84,0,1.12,.28,.28,.28,.28,.56,.28,.84,0,.56-.28,.84-.84,1.12l.84,1.75Zm-2.31-2.03h.84c.56,0,.84-.28,.84-.56s-.28-.56-.56-.56h-.84v1.12h-.28Z"/></g></g></svg>