<?xml version="1.0" encoding="UTF-8"?><svg id="Layer_2" xmlns="http://www.w3.org/2000/svg" viewBox="0 0 233.02 141.69"><g id="Layer_1-2"><g><path d="M104.96,57.67c.95-5.99,1.75-11.36,2.67-16.72,.58-3.39-.54-5.85-3.08-6.32-2.43-.45-4.81,1.6-5.38,4.68-.72,3.89-1.44,7.77-2.08,11.67-.44,2.63-1.83,4.51-4.36,5.24-2.31,.67-4.73,.97-7.45,1.5,.61-3.8,1.1-7.02,1.64-10.22,.83-4.91,1.7-9.82,2.56-14.73,.28-1.61,.53-3.21-1.18-4.49,3.51-2.21,6.94-3.95,11.05-3.63,1.75,.14,2.22,.87,2.06,2.66-.1,1.13-.94,2.55,.47,3.28,1.46,.76,2.04-.87,2.9-1.57,3.09-2.51,6.41-4.45,10.55-4.45,2.74,0,4.24,1.31,4.86,3.93,.19,.8,.79,1.5,1.2,2.24,.67-.44,1.46-.78,2-1.35,3.15-3.31,6.9-5.13,11.53-4.51,3.61,.48,5.4,3.02,4.74,6.6-.87,4.67-1.81,9.33-2.76,13.99-.77,3.75,.63,5.15,4.31,4.24,3.94-.97,3.91-.98,4.6-5.09,.69-4.06,1.44-8.12,2.18-12.17,.28-1.53,.36-2.98-1.27-4.16,3.32-2.06,6.57-3.75,10.46-3.67,2.31,.05,2.84,.67,2.63,2.95-.04,.45-.3,.93-.21,1.34,.14,.61,.36,1.38,.81,1.68,.31,.21,1.15-.13,1.62-.44,2.24-1.47,4.32-3.22,6.68-4.44,1.51-.78,3.4-1,5.14-1.11,2.59-.16,4.03,1.09,4.71,3.6,.87,3.22,1.29,3.34,3.75,.93,.36,.59,.7,1.15,1.02,1.68,.76-1.01,1.53-2.04,2.32-3.1-.19-.11-.53-.32-.87-.52,2.42-2.4,7.99-3.24,10.9-1.66,1.54,.84,2.53,2.18,2.38,3.89-.24,2.9-.73,5.78-1.22,8.64-.48,2.77-1.08,5.51-1.65,8.26-.28,1.35-.14,2.55,1.13,3.32,1.01,.61,3.73,.34,4.39-.49,.3-.38,.46-1.09,.33-1.55-3.22-12.07,7.86-25.07,22.76-22.58,1.87,.31,3.83,1.35,5.31,2.58,3.8,3.17,3.15,8.6-1.19,11.56-2.83,1.93-6.05,2.67-9.4,2.97-.74,.07-1.49,.07-2.24,.08-1.65,.02-3.13,.39-3.71,2.16-.58,1.76,.17,3.83,1.82,4.8,2.96,1.74,6.15,1.9,9.26,.62,1.94-.79,3.65-2.12,5.48-3.18,1.15-.67,2.33-1.28,3.5-1.92,.13,.13,.26,.26,.39,.39-.18,.56-.3,1.15-.56,1.67-3.88,7.74-13.24,12.24-21.56,10.04-2.34-.62-4.57-2.07-6.55-3.55-2.01-1.51-1.97-1.7-3.88,.09-3.22,3.02-7.01,4.51-11.47,3.97-3.89-.47-5.6-2.88-4.84-6.73,.62-3.15,1.24-6.29,1.79-9.45,.31-1.77,.4-3.57-.87-5.08-1-1.19-2.32-1.72-3.84-1.37-2.11,.48-3.41,1.91-3.83,3.98-.65,3.2-1.16,6.43-1.73,9.64-.17,.96-.32,1.92-.48,2.88-.47,2.78-2.1,4.59-4.79,5.27-2.14,.54-4.35,.78-6.82,1.2,.08-1.09,.07-1.75,.17-2.4,.82-5.15,1.69-10.29,2.49-15.44,.37-2.39-.83-4.42-2.88-5.05-1.92-.59-4.27,.36-5,2.59-.94,2.86-1.38,5.89-1.99,8.85-.38,1.85-.68,3.72-1.04,5.57-.38,1.95-1.57,3.31-3.31,4.14-2.53,1.19-5.23,1.57-8.16,1.38,.08-.75,.24-1.43,.18-2.08-.05-.63-.18-1.61-.55-1.76-.52-.21-1.47-.02-1.94,.37-3.18,2.56-6.69,3.94-10.82,3.51-3.85-.4-5.64-2.58-5.05-6.4,.54-3.45,1.24-6.88,1.84-10.32,.55-3.15-.84-5.6-3.37-6-2.48-.39-4.81,1.55-5.35,4.51-.71,3.89-1.46,7.77-2.01,11.68-.41,2.91-1.96,4.79-4.67,5.55-2.22,.62-4.55,.85-7.18,1.31Zm111.54-18.9c3.13-.42,5.65-1.43,7.14-4.19,1.2-2.24-.03-4.35-2.56-4.51-3.11-.19-5.27,1.4-6.79,3.88-.61,.99-1.33,2.54-.95,3.33,.39,.81,2.06,1.02,3.17,1.48Z"/><path d="M49.7,21.16c2.06,2.83,2.15,8.18,.32,10.77-.99,1.4-2.4,1.99-4.04,1.76-1.29-.19-2.57-.57-3.78-1.06-1.89-.76-2.35-.54-2.96,1.41-1.8,5.79-3.47,11.63-5.56,17.32-1.35,3.69-3.44,7.06-6.42,9.79-5.04,4.63-10.97,5.86-17.42,4.22-4.65-1.18-7.51-4.61-8.8-9.12-2.4-8.38-.74-15.93,5.5-22.17,3.5-3.5,7.95-4.84,13.29-4.63-.38,.83-.59,1.49-.96,2.04-2.01,3.04-1.75,6.43,.72,8.75,2.28,2.13,6.07,2.27,8.72,.22,3.18-2.47,4.64-6.06,5.88-9.71,.45-1.33-1.12-2.25-2.71-1.58-.72,.3-1.29,.94-1.97,1.35-.42,.25-1.18,.59-1.34,.43-.35-.35-.58-.98-.58-1.5,0-3.29,3-6.25,6.3-6.31,2.98-.05,2.94-.07,4.05-2.85,.94-2.34,1.95-4.65,3.02-6.92,.61-1.31,.38-2.14-.95-2.76-3.54-1.65-7.14-2.03-10.86-.71-.54,.19-1.08,.41-1.57,.69-3.03,1.78-3.11,4.75-.2,6.69,2.26,1.5,2.35,2.55,.17,4.21-3.4,2.59-7.32,3.62-11.52,2.96-5.64-.88-8.57-6.33-6.99-12.59C10.69,5.51,16.5,.92,23.46,.11c5.85-.68,10.6,1.81,15.3,4.68,1.12,.69,2.27,1.37,3.29,2.2,1.37,1.11,2.35,1.04,3.67-.27,4.46-4.44,9.95-5.89,15.99-4.44,6.08,1.46,8.71,8.37,5.14,12.93-1.63,2.08-3.9,2.92-6.44,3.17-4.4,.43-8.38-.91-12.17-2.97-1.92-1.05-2.35-.97-3.25,1.08-1.03,2.35-1.93,4.77-2.77,7.2-.5,1.46,.02,2.11,1.57,2.31,3.19,.41,4.59-.5,5.5-3.54,.11-.38,.25-.76,.43-1.3Zm6-13.64c-1.82,.74-3.71,1.36-5.44,2.27-1.33,.7-1.31,1.91-.02,2.67,1.52,.9,3.09,1.77,4.75,2.32,1.74,.58,3.69,.52,4.79-1.2,.56-.87,.77-2.35,.44-3.3-.66-1.89-2.5-2.32-4.52-2.77Z"/><path d="M102.32,105c-.56,1.04-.86,1.7-1.25,2.29-1.79,2.76-1.6,5.9,.55,8.23,1.92,2.09,5.3,2.75,7.89,1.18,1.47-.89,2.84-2.19,3.81-3.61,1.24-1.83,2.1-3.93,2.97-5.98,.24-.57,.17-1.75-.19-1.98-.61-.39-1.61-.45-2.36-.28-.67,.15-1.19,.86-1.84,1.21-.46,.24-1.09,.48-1.52,.34-.28-.09-.47-.87-.46-1.34,.04-3.66,3.56-6.83,7.15-6.29,1.59,.24,2.28-.23,2.82-1.68,1.02-2.73,2.17-5.42,3.39-8.07,.65-1.42,.37-2.2-1.04-2.84-3.87-1.76-7.74-1.97-11.66-.26-1.53,.67-2.81,1.66-2.97,3.48-.16,1.79,1,2.8,2.38,3.67,1.94,1.23,2,2.07,.35,3.68-3.25,3.17-10.02,4.46-14.19,2.64-3.58-1.57-4.98-4.6-5.13-8.28-.29-7.29,5.74-13.84,13.52-15.23,5.41-.97,10.07,.63,14.56,3.3,1.92,1.14,3.82,2.33,5.63,3.63,1.24,.89,2.07,.72,3.1-.33,4.36-4.44,9.71-5.97,15.74-4.78,4.99,.99,7.94,5.5,6.94,10.19-.56,2.62-2.21,4.36-4.68,5.29-4.56,1.71-8.91,.73-13.16-1.16-.84-.37-1.65-.8-2.44-1.26-1.16-.69-2.11-.6-2.65,.72-1.09,2.64-2.15,5.3-3.15,7.98-.38,1.04,.05,1.71,1.2,2.02,3.01,.79,5.09-.33,5.95-3.29,.13-.43,.27-.87,.41-1.34,2.28,2.48,2.24,8.97-.08,11.21-1.77,1.7-3.88,1.45-5.97,.74-3.79-1.28-3.75-1.3-4.76,2.54-1.75,6.65-3.52,13.31-6.95,19.35-2.9,5.11-6.81,9.02-12.79,10.43-8.46,1.99-15.57-1.5-18.02-9.03-1.8-5.53-1.39-10.98,1.05-16.25,3.08-6.67,8.3-10.34,15.67-10.86,.56-.04,1.12,0,2.19,0Zm35.92-21.53c-.06-.14-.15,.05-.21-.09-1.9,.84-3.83,1.23-5.65,2.22-1.1,.6-1.05,1.73,.02,2.33,1.78,1,3.61,2.01,5.55,2.59,2.33,.7,4.56-.73,4.94-2.77,.37-2-1.31-3.87-3.79-4.22-.28-.04-.57-.04-.86-.06Zm-28.44,40.29c.69,1.04,1.37,2.06,1.93,2.9,.82-.78,1.7-1.61,2.47-2.34-.71-1.04-1.49-2.17-2.25-3.28-.72,.91-1.52,1.92-2.15,2.72Z"/><path d="M198.09,105.28c-.35,1.04-.56,1.62-.74,2.22-.84,2.68-3.54,3.53-5.72,1.73-.92-.76-1.66-1.76-2.57-2.53-.77-.66-1.62-1.31-2.55-1.67-1.33-.51-2.68-.25-3.53,.99-.86,1.25-.62,2.58,.4,3.62,.96,.97,2.06,1.82,3.17,2.61,2.01,1.43,4.19,2.63,6.08,4.19,3.93,3.26,4.02,8.22,.4,11.87-2.36,2.38-5.32,3.51-8.52,4.17-4.12,.85-8.22,.9-12.22-.51-2.92-1.03-5.06-2.85-5.72-6.08-.11-.52-.64-1.28-1.05-1.33-.54-.07-1.32,.3-1.71,.73-3.51,3.9-7.56,7.04-12.91,7.59-12.2,1.27-19.11-7.32-16.61-17.83,3.08-12.95,16.8-16.73,24.59-13.99,3.01,1.06,5.38,2.88,5.82,6.34,.46,3.59-1.28,6.04-4.22,7.8-3.36,2.01-7.1,2.49-10.91,2.67-2.26,.1-3.36,.71-3.79,2.24-.48,1.71,.31,3.79,2.01,4.73,3.29,1.8,6.73,1.86,10.06,.18,1.78-.9,3.37-2.18,5.1-3.19,1.31-.76,2.58-2.07,4.32-.69,.24,.19,.98-.08,1.41-.29,1.99-.96,3.85-.75,5.39,.77,1.26,1.24,2.2,2.82,3.5,3.99,1.1,.99,2.43,1.94,3.82,2.3,1.53,.4,2.89-.55,3.61-2.04,.74-1.52,.22-2.89-.96-3.86-1.59-1.31-3.39-2.35-5-3.63-1.83-1.45-3.77-2.85-5.26-4.62-2.02-2.4-1.82-6.08,.2-8.43,.64-.75,1.75-1.07,2.52-1.73,5.14-4.45,10.96-4.06,16.77-2.03,1.89,.66,3.35,2.56,4.81,3.73Zm-50.37,8.39c1.64,.61,3.47,.6,5.09-.06,1.42-.57,2.67-1.44,3.52-2.54,.91-1.19,1.54-2.52,.68-3.97-.87-1.48-2.37-1.72-3.93-1.48-2.49,.38-4.35,1.82-5.57,3.93-.58,1.01-1.28,2.61-.87,3.37,.19,.34,.59,.57,1.07,.75Z"/><path d="M84,45.21c-.89,2.95-2.93,5.11-5.17,7.08-4.59,4.04-9.82,6.05-16,4.77-8.37-1.73-12.86-8.64-11.05-17.03,2.55-11.81,14.04-16.76,23-15.06,1.16,.22,2.34,.65,3.38,1.2,5.68,3.04,5.78,9.88,.22,13.29-3.33,2.04-7.03,2.67-10.87,2.76-2.61,.06-3.75,.78-4.12,2.52-.4,1.86,.58,3.87,2.56,4.77,3.92,1.78,7.7,1.29,11.28-1.01,1.35-.87,2.65-1.82,4.02-2.65,.75-.45,1.6-.73,2.4-1.09,.11,.15,.23,.3,.34,.44Zm-16.37-6.46c3.2-.34,6.19-2.13,7.11-4.5,.86-2.21-.33-4.07-2.7-4.21-3.02-.18-5.2,1.31-6.71,3.71-.65,1.04-1.44,2.66-1.05,3.51,.38,.83,2.18,1.01,3.35,1.48Z"/><path d="M198.69,105.72c1.2-1.35,1.93-2.43,2.89-3.22,4.16-3.42,8.38-6.77,12.61-10.1,.88-.69,1.92-1.17,3.35-2.02-.51,2.64-.91,4.75-1.33,6.86-.51,2.62-.19,2.99,2.54,2.99,.52,0,1.03-.02,1.55,.01,1.93,.12,3.21,1.37,3.23,3.11,.02,1.84-1.29,3.16-3.27,3.22-1.43,.04-2.87,.03-4.3,0-1.18-.02-1.79,.56-2.01,1.68-.89,4.49-1.81,8.97-2.68,13.46-.55,2.85,.96,4.3,3.82,3.69,1.44-.31,2.85-.78,4.53-1.24-.16,.61-.2,1.05-.39,1.41-2.28,4.49-8.67,7.96-13.63,7.43-4.27-.46-6.09-2.75-5.37-6.85,.79-4.45,1.62-8.89,2.44-13.34,.25-1.35,.53-2.7,.77-4.05,.27-1.53-.2-2.03-1.77-2.21-.83-.1-1.63-.45-2.97-.83Z"/></g></g></svg>