<?xml version="1.0" encoding="UTF-8"?><svg id="Layer_2" xmlns="http://www.w3.org/2000/svg" viewBox="0 0 378.88 62.88"><defs><style>.cls-1{fill:#231f20;}</style></defs><g id="Layer_1-2"><g><path class="cls-1" d="M51.01,59.39v-20.27c0-3.31,.37-5.6,1.1-6.87,.73-1.27,2.17-1.91,4.31-1.91h1.07v-1.44h-23.76v1.44c3.46,0,5.76,.58,6.91,1.74,1.15,1.16,1.73,3.44,1.73,6.86v15.69c-.63,.9-1.83,1.67-3.62,2.31-3.63,1.14-6.65,1.7-9.06,1.7-5,0-9.88-2.26-14.63-6.78-4.43-4.21-6.65-10.79-6.65-19.74,0-9.51,2-16.48,6-20.92,4.21-4.66,8.84-6.98,13.88-6.98,3.84,0,7.07,.54,9.72,1.61,5.46,2.47,9.56,7.22,11.2,12.99h1.8c-.48-6.24-.96-12.48-1.44-18.72-1.36,.47-2.73,.95-4.09,1.42-.56,.38-1.05,.56-1.47,.56-.4,0-2.19-.34-5.37-1.02-3.33-.71-6.78-1.07-10.34-1.07-7.34,0-13.92,2.79-19.74,8.36C2.85,14.07,0,21.99,0,32.13s2.9,17.47,8.71,22.8c5.78,5.3,12.31,7.95,19.59,7.95,2.17,0,5.03-.36,8.58-1.06,3.62-.72,6.09-1.48,7.42-2.28,.59-.4,1.14-.68,1.64-.85h2.33c.33,.17,1.24,.4,2.74,.7Z"/><path class="cls-1" d="M346.53,62.74c.28-1.66,1.05-2.49,2.3-2.49,.84,0,2.39,.32,4.64,.95,3.65,1.02,6.71,1.54,9.2,1.54,4.57,0,8.41-1.37,11.54-4.11,3.12-2.74,4.68-6.17,4.68-10.29,0-2.43-.65-4.68-1.94-6.75-1.3-2.07-2.91-3.76-4.85-5.06-1.94-1.3-4.79-2.97-8.55-4.99-6.12-3.32-9.76-5.81-10.92-7.49-1.16-1.67-1.74-3.25-1.74-4.73,0-2.3,.91-4.25,2.72-5.84,1.81-1.59,3.98-2.39,6.5-2.39,3.4,0,6.47,1.21,9.19,3.62,2.73,2.41,4.47,6.39,5.23,11.93h1.24V8.61h-1.24c-.43,1.66-1.32,2.49-2.66,2.49-.58,0-1.6-.27-3.06-.8-3.08-1.13-6.02-1.69-8.83-1.69-4.32,0-7.96,1.3-10.9,3.9-2.94,2.6-4.41,5.84-4.41,9.72,0,4.71,2.17,8.49,6.52,11.35,4.35,2.86,10.02,6.27,17.03,10.22,2.97,2.26,4.45,4.83,4.45,7.72,0,2.56-1,4.66-2.98,6.28-1.99,1.63-4.49,2.45-7.5,2.45-8.65,0-13.87-4.98-15.65-14.93h-1.24v17.42h1.24Z"/><path class="cls-1" d="M303.6,62.74c.29-1.66,1.05-2.49,2.3-2.49,.84,0,2.39,.32,4.64,.95,3.65,1.02,6.71,1.54,9.2,1.54,4.57,0,8.41-1.37,11.53-4.11,3.12-2.74,4.68-6.17,4.68-10.29,0-2.43-.65-4.68-1.94-6.75-1.3-2.07-2.91-3.76-4.85-5.06-1.94-1.3-4.79-2.97-8.55-4.99-6.12-3.32-9.76-5.81-10.92-7.49-1.16-1.67-1.74-3.25-1.74-4.73,0-2.3,.91-4.25,2.72-5.84,1.81-1.59,3.98-2.39,6.5-2.39,3.4,0,6.47,1.21,9.19,3.62,2.73,2.41,4.47,6.39,5.23,11.93h1.24V8.61h-1.24c-.43,1.66-1.32,2.49-2.66,2.49-.58,0-1.6-.27-3.06-.8-3.08-1.13-6.02-1.69-8.83-1.69-4.32,0-7.96,1.3-10.9,3.9-2.94,2.6-4.41,5.84-4.41,9.72,0,4.71,2.17,8.49,6.52,11.35,4.35,2.86,10.02,6.27,17.03,10.22,2.97,2.26,4.45,4.83,4.45,7.72,0,2.56-1,4.66-2.98,6.28-1.99,1.63-4.49,2.45-7.5,2.45-8.65,0-13.87-4.98-15.65-14.93h-1.24v17.42h1.24Z"/><path class="cls-1" d="M294.89,48.43h-1.24c-2.31,4.37-4.48,7.12-6.53,8.25s-4.87,1.7-8.48,1.7h-8.72c-1.85,0-3.02-.34-3.52-1.03-.5-.69-.75-2.23-.75-4.63v-16.73h11.23c2.25,0,4.07,.4,5.47,1.19,1.4,.79,2.26,2.89,2.59,6.28h1.24V25.41h-1.24c-.17,3.25-.9,5.31-2.18,6.17-1.29,.86-3.25,1.29-5.88,1.29h-11.23V12.97h14.21c3.5,0,5.88,.51,7.15,1.54,1.26,1.03,2.23,3.21,2.91,6.55h1.24c-.21-3.73-.42-7.47-.62-11.2h-39.82v1.24h1.86c1.88,0,3.28,.39,4.21,1.18,.93,.78,1.39,2.94,1.39,6.46V52.53c0,3.29-.48,5.4-1.44,6.33-.96,.93-2.35,1.39-4.17,1.39h-1.86v1.24h39.74c1.48-4.36,2.95-8.71,4.43-13.07Z"/><path class="cls-1" d="M248.84,11.1v-1.24h-18.04v1.24h1.83c1.81,0,3.2,.42,4.18,1.26,.98,.84,1.46,2.98,1.46,6.42v30.39c-10.67-13.1-21.35-26.21-32.02-39.31h-13.4v1.24c1.96,0,3.68,.4,5.18,1.21,1.49,.8,3.09,2.25,4.78,4.33V52.69c0,3.42-.53,5.54-1.6,6.35-1.07,.81-2.42,1.22-4.04,1.22h-1.82v1.24h18.04v-1.24h-1.86c-1.83,0-3.23-.41-4.18-1.23-.95-.82-1.43-2.93-1.43-6.33V20.77c11.4,13.99,22.79,27.98,34.19,41.98h1.27V18.71c0-2.9,.37-4.89,1.11-5.98,.74-1.09,2.24-1.63,4.5-1.63h1.86Z"/><path class="cls-1" d="M192.85,11.1v-1.24h-18.04v1.24h1.83c1.81,0,3.2,.42,4.18,1.26s1.46,2.98,1.46,6.42v30.39c-10.67-13.1-21.35-26.21-32.02-39.31h-13.4v1.24c1.96,0,3.68,.4,5.18,1.21,1.49,.8,3.09,2.25,4.78,4.33V52.69c0,3.42-.53,5.54-1.6,6.35-1.07,.81-2.42,1.22-4.04,1.22h-1.82v1.24h18.04v-1.24h-1.86c-1.83,0-3.23-.41-4.18-1.23-.95-.82-1.43-2.93-1.43-6.33V20.77c11.4,13.99,22.79,27.98,34.19,41.98h1.27V18.71c0-2.9,.37-4.89,1.11-5.98,.74-1.09,2.24-1.63,4.5-1.63h1.86Z"/><path class="cls-1" d="M135.61,61.5v-1.24h-1.86c-.97,0-1.93-.2-2.87-.6-.94-.4-1.63-.93-2.08-1.6-.44-.67-.67-2.53-.67-5.59V18.89c0-3.56,.55-5.75,1.66-6.57,1.11-.81,2.42-1.22,3.95-1.22h1.86v-1.24h-22.4v1.24h1.87c2.02,0,3.46,.48,4.32,1.44,.86,.96,1.28,3.08,1.28,6.35V52.47c0,2.94-.34,4.98-1.01,6.1-.67,1.12-2.2,1.69-4.59,1.69h-1.87v1.24h22.4Z"/><path class="cls-1" d="M110.72,11.1v-1.24h-18.04v1.24h1.94c1.74,0,3.1,.44,4.07,1.31,.97,.87,1.45,3.03,1.45,6.48v21.07c0,5.95-.57,10.06-1.71,12.34-1.14,2.27-3.03,4.07-5.68,5.38-2.65,1.31-5.49,1.96-8.51,1.96s-5.76-.66-7.81-1.99c-2.05-1.33-3.48-3.27-4.31-5.81-.82-2.55-1.23-5.97-1.23-10.27V18.89c0-3.37,.51-5.51,1.52-6.42,1.01-.91,2.33-1.37,3.96-1.37h1.98v-1.24h-22.4v1.24h1.93c2.29,0,3.79,.63,4.49,1.9,.7,1.26,1.05,3.22,1.05,5.86v20.25c0,6.14,.5,10.68,1.49,13.62,.99,2.95,3.08,5.35,6.26,7.21,3.18,1.86,7.3,2.79,12.35,2.79s9.41-1.05,12.53-3.14c3.12-2.09,5.1-4.75,5.94-7.97,.84-3.22,1.26-7.04,1.26-11.46V19.15c0-2.9,.43-4.96,1.29-6.2,.86-1.24,2.27-1.85,4.23-1.85h1.94Z"/></g></g></svg>