<?xml version="1.0" encoding="UTF-8"?><svg id="Layer_2" xmlns="http://www.w3.org/2000/svg" viewBox="0 0 350.08 180.24"><defs><style>.cls-1{fill:#fff;}.cls-2{fill:#b5b5b5;}</style></defs><g id="Layer_1-2"><g><path class="cls-1" d="M227.74,39.47c-.53-1.6-2.01-2.63-3.61-2.65h-35.96L177.03,2.61c-.51-1.52-1.93-2.61-3.61-2.61s-3.12,1.09-3.63,2.61l-11.12,34.23h-35.98c-1.6,.02-3.08,1.03-3.61,2.65-.53,1.6,.08,3.3,1.37,4.25l29.12,21.16-11.12,34.23c-.49,1.54,.02,3.26,1.4,4.25,1.37,.99,3.16,.96,4.47,.02l29.12-21.16,29.1,21.12c1.29,.92,3.1,.98,4.47-.02s1.87-2.71,1.4-4.25l-11.12-34.23,29.12-21.14c1.27-.96,1.85-2.65,1.33-4.25"/><path d="M143.45,99.51c-.25,.18-.59,.18-.86,0-.25-.18-.37-.49-.27-.78l11.45-35.26-29.96-21.77c-.25-.18-.35-.49-.25-.8s.37-.49,.68-.49h37.06l11.45-35.22c.1-.29,.35-.49,.68-.49,.31,0,.59,.21,.68,.51l11.45,35.22h37.06c.31,0,.59,.2,.68,.49,.1,.31-.02,.62-.25,.8l-29.98,21.77,11.45,35.24c.08,.29-.02,.6-.27,.8-.25,.18-.6,.18-.86,0l-29.96-21.79-29.98,21.77Z"/><path class="cls-2" d="M149.55,64.87l-29.1-21.14c-.51-.37-.9-.86-1.17-1.42-.1,1.38,.43,2.77,1.52,3.55l28.28,20.54,.47-1.52Zm47.7,0l29.12-21.14c.51-.37,.9-.86,1.17-1.42,.1,1.38-.43,2.77-1.52,3.55l-28.28,20.54-.49-1.52h0Zm-23.83,19.54l28.51,20.71c1.74,1.27,4.15,.9,5.44-.84,.49-.68,.74-1.46,.76-2.24-.25,.49-.64,.94-1.13,1.29-1.37,.99-3.16,.96-4.47,.02l-29.12-21.14-29.12,21.16c-1.29,.92-3.1,.98-4.47-.02-.49-.35-.86-.8-1.13-1.29,.02,.78,.25,1.56,.76,2.24,1.27,1.74,3.71,2.11,5.44,.84l28.51-20.73h0Z"/><path d="M89.58,165.8c-2.3,2.3-5.3,4.6-8.25,5.54-2.77,.9-10.69,1.58-13.03-4.95-.51-1.42-.1-1.85,1.19-2.24,1.91-.57,6.83-2.01,12.03-3.96,4.72-1.76,8.91-3.92,10.24-4.8,2.36-1.54,2.71-3.73,1.66-6.08-3.32-7.43-10.79-15.23-23.25-12.85-9.89,1.89-16.99,10.79-16.99,20.99,0,12.62,7.61,19.99,17.28,22.27,8.93,2.13,19.46-2.2,23.95-9.5,1.81-2.79-3.22-6.12-4.84-4.41m-22.41-9.93c-.98-2.67-.2-10.86,4.33-12.4,4.74-1.64,7.66,.82,9.07,5.6,.53,1.77,.41,3.65-.16,4.35-.84,1.03-2.34,1.64-3.69,2.09l-3.55,1.17c-3.51,1.19-5.19,1.42-6.01-.8m138.28,9.93c-2.3,2.3-5.3,4.6-8.23,5.54-2.77,.9-10.69,1.58-13.03-4.95-.51-1.42-.08-1.85,1.19-2.24,1.91-.57,6.83-2.01,12.03-3.96,4.72-1.76,8.93-3.92,10.24-4.8,2.36-1.54,2.71-3.73,1.68-6.08-3.32-7.43-10.79-15.23-23.25-12.85-9.89,1.89-16.99,10.79-16.99,20.99,0,12.62,7.59,19.99,17.28,22.27,8.93,2.13,19.44-2.2,23.95-9.5,1.76-2.79-3.26-6.12-4.88-4.41m-22.41-9.93c-.59-1.6-.55-5.17,.55-8.11,.74-1.97,1.83-3.51,3.76-4.29,2.16-.88,4.02-.62,5.48,.21,1.66,.96,2.85,2.85,3.61,5.4,.53,1.77,.41,3.65-.18,4.35-.84,1.03-2.15,1.54-3.69,2.09s-2.91,.99-3.55,1.19c-3.51,1.07-5.17,1.38-5.99-.84m110.74,9.93c-2.3,2.3-5.3,4.6-8.25,5.54-2.77,.9-10.69,1.58-13.03-4.95-.51-1.42-.08-1.85,1.19-2.24,1.91-.57,6.83-2.01,12.03-3.96,4.72-1.76,8.93-3.92,10.24-4.8,2.36-1.54,2.71-3.73,1.68-6.08-3.32-7.43-10.79-15.23-23.25-12.85-9.89,1.89-16.97,10.79-16.97,20.99,0,12.62,7.59,19.99,17.28,22.27,8.93,2.13,19.44-2.2,23.95-9.5,1.76-2.79-3.26-6.12-4.88-4.41m-22.41-9.93c-.59-1.6-.55-5.17,.55-8.11,.74-1.97,1.83-3.51,3.76-4.29,2.16-.88,4.02-.62,5.48,.21,1.66,.96,2.85,2.85,3.61,5.4,.53,1.77,.41,3.65-.18,4.35-.84,1.03-2.15,1.54-3.69,2.09s-2.91,.99-3.55,1.19c-3.53,1.07-5.17,1.38-5.99-.84m-250.46-3.3c-.68,0-1.27,.57-1.27,1.27v14.28c.02,2.22,.68,3.71,1.89,4.23,.66,.29,2.07,.96,2.89,1.31,.55,.25,.59,.82,.49,1.54l-.33,3.16c-.08,.74-.66,1.05-1.77,1.05H2.14c-1.05,0-1.7-.18-1.79-1.05l-.33-3.28c-.08-.82,.08-1.23,.59-1.48,.68-.31,2.2-.99,2.85-1.29,1.29-.59,1.83-2.34,1.83-4.15v-35.32c0-1.97-.55-3.57-1.99-4.23-.66-.29-2.01-.92-2.67-1.23-.55-.25-.68-.76-.59-1.5,.1-.64,.25-1.74,.33-2.42,.12-.86,.74-1.05,1.79-1.05H21.88c1.05,0,1.66,.18,1.77,1.05,.1,.68,.25,1.77,.35,2.42,.1,.72-.04,1.23-.57,1.5l-2.32,1.27c-.86,.47-1.4,1.42-1.42,3.71v10.3c0,.68,.57,1.27,1.27,1.27h11.02c.68,0,1.27-.55,1.27-1.27v-10.3c-.02-2.28-.57-3.24-1.42-3.71-.62-.35-1.62-.9-2.32-1.27-.53-.29-.68-.78-.57-1.5,.1-.64,.25-1.74,.35-2.42,.12-.86,.72-1.05,1.77-1.05h19.72c1.05,0,1.66,.18,1.79,1.05,.1,.68,.25,1.77,.33,2.42,.12,.72-.04,1.23-.59,1.5-.66,.31-2.03,.94-2.67,1.23-1.42,.66-1.99,2.26-1.99,4.23v35.34c0,1.83,.55,3.57,1.83,4.15,.66,.31,2.16,.98,2.85,1.29,.51,.23,.68,.66,.59,1.48-.08,.64-.25,2.59-.33,3.28-.08,.86-.74,1.05-1.79,1.05H30.05c-1.11,0-1.7-.31-1.77-1.05-.08-.68-.25-2.52-.31-3.16-.08-.72-.06-1.29,.49-1.54,.8-.37,2.22-1.03,2.89-1.31,1.21-.53,1.87-2.01,1.89-4.23v-14.3c0-.68-.57-1.27-1.27-1.27h-11.06Zm221.67-1.15s7.49,13.55,9.54,17.26c1.56,2.83,3.3,3.63,5.68,4.97,.6,.35,.8,.59,.68,1.72-.08,.9-.21,2.24-.29,2.94-.1,.98-.8,1.09-1.77,1.09h-11.04c-1.4,0-1.93-.29-2.44-1.19-.53-.96-9.75-17.77-9.75-17.77l-3.49,3.32v4.62c.02,2.13,.99,3.49,1.95,4.04l2.3,1.29c.59,.31,.62,.72,.55,1.64-.06,.64-.23,2.32-.29,3-.08,.76-.59,1.05-1.77,1.05h-18.37c-1.05,0-1.7-.18-1.79-1.05-.08-.68-.25-2.48-.31-3.12-.08-.8,.06-1.23,.59-1.52,.7-.39,1.7-.96,2.32-1.29,.9-.49,1.64-1.85,1.64-4.08v-35.89c0-2.48-.96-3.61-1.68-4.02-.53-.29-2.01-1.13-2.34-1.31-.53-.29-.62-.86-.53-1.54,.1-.64,.21-1.46,.29-2.15,.12-.9,.72-1.05,1.79-1.05h13.28c1.13,0,2.4,.82,2.4,2.4v27.42s7.45-6.71,8.54-7.7c.8-.7,.57-1.46,.12-1.66l-2.09-.96c-.53-.23-.8-.53-.7-1.4,.08-.82,.23-2.16,.29-2.81,.08-.82,.35-1.17,1.72-1.17h16.23c1.01,0,1.37,.35,1.42,1.01l.33,3.1c.06,.6-.37,.96-1.27,1.29-2.34,.86-3.37,1.46-6.53,4.52l-5.19,4.97m-128.37,17.05c.02,2.13,.72,3.43,1.68,3.96l2.3,1.29c.59,.31,.62,.72,.55,1.64-.06,.64-.23,2.32-.29,3-.08,.76-.59,1.05-1.77,1.05h-18.41c-1.05,0-1.7-.18-1.79-1.05-.08-.68-.25-2.48-.31-3.12-.08-.8,.06-1.23,.59-1.52,.7-.39,1.7-.96,2.32-1.29,.9-.49,1.64-1.85,1.64-4.08v-20.13c0-2.71-.8-3.96-1.66-4.47-.53-.29-1.25-.7-1.6-.9-.55-.31-.62-.82-.53-1.52,.1-.64,.23-1.72,.33-2.4,.12-.86,.74-1.05,1.79-1.05h13.93c.68,0,1.23,.55,1.23,1.23l.02,29.35h0Zm-7.84-47.24c-4.08,0-7.37,3.18-7.37,7.12s3.3,7.12,7.37,7.12,7.37-3.18,7.37-7.12c.02-3.94-3.3-7.12-7.37-7.12m55.78,27.01c0-7.39-3.35-10.2-7.22-11.43-4.47-1.42-9.87,.92-12.64,2.2-1.13,.53-2.16,1.05-2.16,1.05-.72-1.68-1.09-2.16-2.16-2.16h-13.15c-1.05,0-1.66,.18-1.79,1.05-.1,.68-.23,1.76-.33,2.4-.1,.68-.02,1.21,.53,1.52,.35,.2,1.07,.62,1.6,.9,.88,.49,1.66,1.76,1.66,4.47v20.13c0,2.22-.74,3.57-1.64,4.08-.62,.35-1.62,.9-2.32,1.29-.53,.29-.68,.72-.59,1.52,.08,.64,.25,2.44,.31,3.12,.08,.86,.74,1.05,1.79,1.05h18.37c1.17,0,1.7-.29,1.77-1.05,.08-.68,.25-2.36,.29-3,.08-.9,.04-1.31-.55-1.64-.76-.41-1.7-.92-2.3-1.29-1.19-.68-1.68-2.44-1.68-4.02l.02-15.97c0-4.17,2.03-6.51,4.84-6.87,1.85-.23,4.23,.92,4.23,4.19v21.53c0,6.14,5.21,8.48,9.3,8.48,4.33,0,8.04-1.99,9.67-5.44,.53-1.09-.12-1.93-.66-2.52-.62-.68-1.17-1.29-2.16-.76-.99,.51-2.03,1.48-2.61,1.17-.45-.25-.49-.62-.49-1.6v-22.41h.06Zm178.45,0c0-7.39-3.35-10.2-7.22-11.43-4.47-1.42-9.87,.92-12.64,2.2-1.13,.53-2.16,1.05-2.16,1.05-.72-1.68-1.09-2.16-2.16-2.16h-13.11c-1.05,0-1.66,.18-1.79,1.05-.1,.68-.23,1.76-.33,2.4-.1,.68-.02,1.21,.53,1.52,.35,.2,1.07,.62,1.6,.9,.88,.49,1.66,1.76,1.66,4.47v20.13c0,2.22-.72,3.57-1.64,4.08-.62,.35-1.62,.9-2.32,1.29-.53,.29-.68,.72-.59,1.52,.08,.64,.25,2.44,.31,3.12,.08,.86,.74,1.05,1.79,1.05h18.37c1.19,0,1.7-.29,1.77-1.05,.08-.68,.25-2.36,.31-3,.08-.9,.04-1.31-.55-1.64-.76-.41-1.7-.92-2.3-1.29-1.19-.68-1.68-2.44-1.68-4.02l.02-15.97c0-4.17,2.03-6.51,4.84-6.87,1.87-.23,4.25,.92,4.25,4.19v21.53c0,6.14,5.21,8.48,9.3,8.48,4.33,0,8.04-1.99,9.67-5.44,.53-1.09-.12-1.93-.66-2.52-.62-.68-1.17-1.29-2.16-.76-.99,.51-2.03,1.48-2.61,1.17-.45-.25-.49-.62-.49-1.6l-.02-22.41h0Zm9.48-22.78c0,4.51-3.65,8.13-8.13,8.13s-8.15-3.63-8.15-8.13,3.65-8.13,8.15-8.13,8.13,3.63,8.13,8.13m-1.66,0c0-3.59-2.91-6.48-6.48-6.48s-6.51,2.89-6.51,6.48,2.91,6.48,6.51,6.48c3.59,.02,6.48-2.89,6.48-6.48m-3.1,1.95c.14,.96,.57,1.64,.8,2.15h-2.18c-.43-.94-.51-1.56-.72-2.2-.29-.94-.86-1.21-1.89-1.21h-.76v3.41h-1.99v-8.76h4.19c.98,0,2.67,.59,2.67,2.44,0,1.17-.66,1.97-1.31,2.22,.72,.47,1.05,.99,1.19,1.95m-1.95-4.08c0-.7-.74-.96-1.37-.96h-1.4v2.01h1.6c.7,0,1.17-.45,1.17-1.05"/></g></g></svg>