<?xml version="1.0" encoding="UTF-8"?><svg id="Layer_2" xmlns="http://www.w3.org/2000/svg" viewBox="0 0 546.19 185.89"><g id="Layer_1-2"><path d="M325.31,60.22c10.36-18.97,19.18-38.05,3.52-59.68h92.98c-.13-.51,.04-.18-.04-.1-6.79,6.78-9.25,14.99-9.02,24.51,.34,13.85-.03,27.72,.08,41.58,.1,12.16,5.34,19.33,16.68,23.36,1.95,.69,3.89,1.43,6.81,2.51-2.66,.96-4.26,1.55-5.88,2.11-10.55,3.66-17.25,12.18-17.43,23.31-.27,16.98-.13,33.97-.08,50.95,.02,6.69,1.79,12.61,7.94,17.11h-91.07c.72-.86,1.83-1.93,2.64-3.19,2.49-3.86,2.18-8.05,1.28-12.31-1.51-7.13-5.99-12.54-10.38-17.99-36.37-45.1-72.75-90.19-109.14-135.27-3.43-4.25-6.94-8.43-10.79-13.11-4.42,4.86-7.06,9.97-9.01,15.49-3.87,10.95-7.68,21.91-11.55,32.86-14.05,39.79-28.1,79.57-42.16,119.36-1.41,3.98-2.81,7.97-4.64,13.15-.89-2.32-1.49-3.56-1.85-4.87-6.69-24.06-13.27-48.14-20.03-72.18-7.26-25.83-14.68-51.62-22.03-77.43-.41-1.44-.83-2.88-1.24-4.32-2.53-8.97-4.02-18.44-11.97-25.19h37.02c-6.35,8.09-2.8,15.95-.65,23.63,8.1,28.97,16.4,57.89,24.69,86.81,1.02,3.55,2.41,7,3.62,10.49,.39,.06,.78,.12,1.18,.18,.94-2.05,2.01-4.05,2.79-6.16,6.07-16.39,12.03-32.81,18.12-49.2,5.26-14.16,10.64-28.27,15.95-42.41,1.01-2.69,1.92-5.41,2.87-8.12,1.91-5.42,.7-10.28-3.44-15.14h77.86c-1.04,1.87-2.31,3.56-2.96,5.45-2.1,6.13-.74,12.11,2.59,17.21,5.32,8.13,11.08,16,17.12,23.6,31.86,40.07,63.86,80.03,95.82,120.02,2.88,3.61,5.8,7.18,8.79,10.7,2.23,2.62,3.47,2.49,4.52-.86,1.11-3.54,2.23-7.27,2.24-10.92,.14-49.58,.12-99.16,0-148.74,0-3.17-.72-6.47-1.76-9.48-1.27-3.64-2.52-3.76-5.25-1.05-16.23,16.08-32.45,32.18-48.6,48.33-1.83,1.83-3.27,4.06-4.89,6.11-.43-.37-.85-.75-1.28-1.12Z"/><path d="M501.84,0h43.33c-7.44,5.32-8.3,12.68-8.29,20.51,.04,46.95,0,93.89-.02,140.84,0,1.25,.04,2.5,.05,3.75,.1,7.74,1.48,14.96,9.27,20.41h-43.02c.53-.59,.83-1.07,1.25-1.35,4.13-2.81,6.39-6.82,6.44-11.68,.23-18.59,.56-37.2,.2-55.78-.23-11.46-7.37-18.35-17.62-22.36-1.36-.53-2.74-1-5.12-1.87,3.19-1.24,5.44-2.18,7.74-3,9.28-3.28,14.53-10.16,14.81-19.63,.53-17.46,.22-34.95,.02-52.43-.06-5.32-2.85-9.74-6.17-13.77-.84-1.01-1.64-2.06-2.88-3.62Z"/><path d="M0,.69H38.37c-6.86,6.12-4.68,12.83-2.1,19.62,13.36,35.11,26.69,70.23,40.05,105.35,.34,.89,.86,1.71,1.72,3.41,6.8-8.75,13.21-17,19.61-25.25,.35,.17,.71,.33,1.06,.5-7.49,26.47-14.98,52.94-22.73,80.36-.98-1.82-1.53-2.62-1.88-3.5C52.52,126.37,31.04,71.52,9.29,16.77,7.06,11.14,3.2,6.15,0,.69Z"/><path d="M260.65,128.08c-2,4.66-5.95,12.22-8.43,20.24-1.77,5.71-2.09,12.03-2.1,18.08-.01,6.63,2.37,10.92,8.44,19.15h-55.5c19.87-19.82,39.93-39.84,57.59-57.46Z"/></g></svg>