<?xml version="1.0" encoding="UTF-8"?><svg id="Layer_2" xmlns="http://www.w3.org/2000/svg" viewBox="0 0 344.03 131.16"><g id="Layer_1-2"><g><path d="M51.59,124.92h0c0-.22-.05-.44-.05-.6-.05-.33-1.26-32.38-1.37-35.07-.11-2.57,1.2-4.1,3.61-4.27h.82v-1.48h-13.79l-13.24,34.68-12.96-34.68-14,.05v1.48h.22c1.48,0,3.5,.66,4.38,1.59,.82,.88,.6,2.19,.6,3.5l-.82,34.9c-.11,3.61-3.06,4.54-4.76,4.54h-.22v1.53H13.13v-1.53h-.33c-1.31,0-5.03-.82-4.87-4.81l.71-31.78,14.82,38.18,2.19-.05,15.92-41.25,.55,36.32c0,.93-.33,1.7-.88,2.3-.82,.82-1.97,1.04-2.68,1.04h-.27v1.53h18.76v-1.53h-.22c-1.97,.05-4.7-1.42-5.25-4.6"/><path d="M77.57,111.57h0c3.56-9.46,7.66-19.86,7.77-20.24l6.67,20.24h-14.44Zm36.38,18h-.55c-3.01,0-5.69-1.59-7-4.05-.11-.16-.11-.33-.22-.49l-15.21-41.47h-12.03v1.48h.22c1.48,0,3.28,.33,3.88,1.31,.05,.11,.11,.16,.11,.22,.27,.71,.11,1.48-.22,2.3l-13.29,35.56c-1.59,3.39-3.94,5.14-8.26,5.14h-.49v1.53h17.01v-1.53h-.88c-.38,0-3.61-.05-4.76-1.7-.05-.11-.11-.16-.11-.22-.16-.6,.11-1.2,.38-1.97,.27-.71,1.97-5.31,4.27-11.32l15.75-.05,3.99,11.38c.38,1.04,.33,2.08-.16,2.84-.44,.66-1.7,1.04-2.46,1.04h-.33v1.42h.05v.11h20.46v-1.42h-.05v-.11h-.11Z"/><path d="M168.21,129.57h0c-2.19,0-4.92-1.31-6.56-3.17-.22-.22-.38-.49-.6-.71l-14.66-19.91,.22-.16c6.73-4.05,10.72-8.1,10.78-11.98,.05-2.19-.82-4.32-2.63-6.13,0-.05-.05-.05-.05-.11h-.05c-2.79-2.95-8.42-3.88-15.15-3.88h-19.47v1.37h.11v.11h.33c1.42,.05,2.74,.71,3.56,1.7,.6,.77,1.04,1.7,1.04,2.74v35.01c-.05,3.12-2.35,5.14-6.02,5.2h-.11v1.53h21.23v-1.53h-.55c-1.53,0-2.79-.44-3.67-1.31-.11-.11-.27-.27-.33-.38-.71-.98-1.04-2.3-1.04-3.88v-38.46h1.04c7.11,0,9.63,.55,11.32,2.35,.11,.11,.22,.22,.33,.33,1.26,1.64,2.02,3.61,1.97,5.31-.33,8.48-10.39,14.44-12.2,15.43l16.74,22.05,.11,.11h14.99v-1.53h-.66v-.05Z"/><path d="M208.59,83.56h-41.08l-1.48,9.85h1.53v-.11c.82-5.36,3.88-7.11,8.92-7.11h6.73v37.91c0,3.45-2.41,5.47-6.56,5.47h-.16v1.53h22.98v-1.53h-.33c-2.19,0-3.99-.6-5.09-1.7-.88-.93-1.31-2.19-1.31-3.67v-37.96h6.95c2.46,0,4.49,.44,5.96,1.48,1.48,1.09,2.41,2.84,2.84,5.53l.05,.16h1.48l-1.48-9.85h.05Z"/><path d="M253.99,121.2h0v.11c-.82,5.36-3.88,7.11-8.92,7.11h-12.8v-21.12h9.68c.77,0,1.48,.16,2.02,.55,.93,.66,1.59,1.81,1.59,3.45v.27h1.53v-10.56h-1.53l-.05,.16c.05,1.81-1.48,3.34-3.56,3.34h-9.68v-18.27h10.78c1.97,.05,3.56,.33,4.81,1.09,1.81,1.04,2.95,2.9,3.39,5.85v.16h1.59l-1.48-9.85h-34.35v1.48h.22c1.26,.05,2.41,.33,3.34,.88,.33,.16,.55,.38,.82,.6,.82,.88,1.26,2.08,1.26,3.5v34.08c0,3.28-3.56,5.47-6.84,5.47h-.33v1.53h38.68l1.48-9.9h-1.64v.05Z"/><path d="M297.7,121.31h0c-.82,5.36-3.83,7.11-8.92,7.11h-10.72v-38.51c0-3.88,2.19-4.92,5.69-4.92h.38v-1.48h-22.43v1.48h.22c.82,0,2.57-.05,4.1,.71,1.31,.71,2.41,2.19,2.41,4.92v32.82c0,4.05-2.19,6.18-6.51,6.18h-.22v1.53h36.21l1.42-9.9h-1.59v.05h-.05Z"/><path d="M343.81,121.2h-1.42v.11c-.82,5.36-3.88,7.11-8.92,7.11h-10.61v-38.51c0-3.88,2.19-4.92,5.74-4.92h.44v-1.48h-22.48v1.48h.22c.82,0,2.41-.05,3.83,.55,1.48,.66,2.68,2.08,2.68,5.03v32.82c0,4.05-2.19,6.13-6.51,6.13h-.22v1.53h36l1.48-9.9h-.22v.05Z"/><path d="M202.4,26.29h0c-13.07,4.16-22.54,4.81-33.75,5.03,11.38-.82,20.62-2.84,32.93-6.89,4.7-1.53,9.79-3.99,13.89-6.13,3.17-1.7,6.29-3.28,8.42-3.94-1.15,.66-2.57,1.59-4.38,2.79-4.7,3.01-11.1,7.17-17.12,9.14m8.32,4.81h0c-.77,1.91-2.35,3.56-4.7,4.92,1.37-1.09,2.46-2.95,2.95-4.38,1.04-3.01,0-5.2-.71-6.18,.66-.33,1.26-.66,1.97-.98,.49,1.04,1.59,3.77,.49,6.62m-4.49,1.09h0c.82-2.41-.11-4.27-.82-5.47,.77-.33,1.53-.6,2.19-.98,.66,.98,1.59,3.17,.27,5.8-.88,1.75-2.35,3.45-4.7,4.76,1.26-1.09,2.63-2.74,3.06-4.1m-2.79,.44h0c.55-2.19-.33-3.67-1.04-4.87,.16-.05,.33-.11,.49-.11,.6-.22,1.26-.44,1.81-.66,.6,1.04,1.53,3.06,.38,5.36-.77,1.53-2.41,2.84-4.49,3.99,1.04-.98,2.52-2.52,2.84-3.72m-5.31,3.72h0c1.2-.98,2.52-2.9,2.57-4.16,.11-1.81-.33-2.57-1.04-3.56,.66-.22,1.31-.38,2.02-.6,.6,1.04,1.48,2.9,.55,4.7-.66,1.26-2.3,2.63-4.1,3.61m-1.97,.16h0c.6-.71,1.7-1.97,1.86-3.28,.27-1.7-.44-2.9-1.2-3.83,.71-.16,1.37-.38,2.08-.55,.6,.71,1.26,2.02,.77,3.56-.33,1.15-2.02,3.17-3.5,4.1m-1.7-.11h0c.6-.71,1.15-2.46,1.09-3.17-.11-1.53-.77-2.41-1.48-3.12,.66-.16,1.31-.33,2.02-.49,.6,.66,1.53,1.97,1.04,3.77-.27,.82-1.59,2.24-2.68,3.01m-3.56-5.63h0c.77-.11,1.53-.33,2.24-.49,.71,.49,1.53,1.26,1.53,3.01,0,.98-.55,2.08-1.09,2.68v-.27c0-2.46-1.7-4.21-2.68-4.92m-28.45-.22h0c1.42,0,2.74-.11,3.99-.22,12.36-1.26,18.87-3.77,31.95-8.21,3.17-1.09,8.42-3.28,11.32-4.54,5.09-2.24,10.28-4.27,13.29-4.43-2.19,.71-5.25,2.63-8.53,4.32-4.05,2.13-8.53,4.49-13.13,6.13-12.58,4.38-23.47,6.29-35.78,7-1.2,0-2.13,0-3.12-.05m3.39-1.59h0c12.2-1.75,28.45-8.86,38.73-12.69,7.33-2.74,13.07-5.14,17.34-4.49-3.17,.44-8.32,2.68-13.07,4.76-2.95,1.31-6.35,2.95-9.46,4.1-11.87,4.49-22.1,7.55-34.3,8.7-1.37,.11-2.46,.11-3.77,0,1.64,0,3.12-.16,4.54-.38m-.6-1.31h0c4.49-.82,10.23-2.52,14.55-4.1-.05,.44-.11,.77-.27,1.04-4.98,1.48-10.01,2.63-15.04,3.34-1.2,.16-2.24,.16-3.34,.16,1.42-.05,2.79-.16,4.1-.44m1.15-13.4h0c2.19,.33,4.21,.66,6.18,1.09,4.7,1.04,9.57,1.97,10.72,4.7,.6,1.42,.38,2.79,.22,3.28-.82,.27-1.59,.55-2.41,.77,.27-.71,.33-1.48-.11-2.63-1.15-3.06-7.55-6.13-14.61-7.22m17.72,5.25h0c-1.09-3.12-5.96-4.43-11.21-5.58-2.08-.44-4.21-.82-6.51-1.15,2.63,.11,5.14,.33,7.71,.66,5.42,.66,11.76,1.91,12.75,5.25,.49,1.64,.38,2.79,.22,3.39-.88,.33-1.81,.6-2.68,.93,.16-.82,.38-1.7-.27-3.5m-8.42-7.99h0c6.18,.38,11.76,1.15,13.95,4.27,1.48,2.13,1.15,4.49,1.04,5.03-.98,.38-1.81,.71-2.13,.82-.22,.05-.38,.11-.6,.22,.11-.33,.11-1.2,0-2.19-.44-3.28-2.24-6.29-13.57-7.66-2.68-.33-5.31-.55-7.99-.66,3.06-.05,6.07,0,9.3,.16m1.59-1.91h0c7.06,0,13.57,1.15,15.7,4.16,1.59,2.19,1.37,4.76,1.26,5.63-.93,.33-1.81,.71-2.63,1.04,.16-.93,.27-3.06-1.26-5.42-1.97-3.17-7.71-4.49-14.5-4.92-3.17-.11-6.24-.16-9.24-.16,3.39-.22,6.89-.38,10.67-.33m1.53-1.91h0c7.82-.27,14.72,.77,17.34,4.05,1.97,2.46,1.59,5.47,1.42,6.29-.82,.33-1.7,.66-2.52,1.04,.22-1.15,.33-3.61-1.42-6.13-2.46-3.45-8.7-4.7-16.3-4.76-3.72-.05-7.17,.11-10.5,.27,3.77-.38,7.71-.66,11.98-.77m1.53-1.97h0c8.75-.55,15.65,.49,18.76,4.05,2.3,2.63,1.86,5.96,1.64,7-.71,.27-1.53,.6-2.35,.93,.22-1.31,.44-4.21-1.64-6.84-2.95-3.67-9.52-4.87-17.89-4.6-4.16,.11-7.99,.38-11.6,.71,4.05-.55,8.37-.93,13.07-1.26m1.59-1.91h0c9.63-.82,17.01,.11,20.51,3.94,2.63,2.84,1.97,6.51,1.75,7.55-.16,.05-.27,.11-.44,.16-.27,.11-1.04,.38-2.08,.82,.22-1.26,.16-3.83-.6-5.53-1.75-3.56-6.56-7.39-20.68-6.51-4.6,.27-8.7,.66-12.64,1.09,4.32-.55,8.97-1.09,14.17-1.53m1.53-1.91h0c10.45-1.09,18.11-.11,22.05,4.05,2.79,2.95,2.41,6.62,2.13,7.99-.82,.33-1.7,.66-2.52,1.04,.33-1.48,.66-5.14-2.13-8.15-3.83-4.1-11-5.25-21.12-4.43-4.92,.44-9.3,.93-13.46,1.53,4.6-.77,9.52-1.48,15.04-2.02m37.36,8.37h0c-3.34-.05-7.28,1.26-11.71,3.01,.11-.49,.27-1.2,.27-2.02,4.49-1.42,8.37-1.97,11.43-.98m7.66,3.72h0s-1.59-1.26-2.52-2.24c-4.49-4.27-9.9-4.21-16.68-2.02-.22-1.53-.77-3.12-2.13-4.76-3.94-4.7-12.86-5.63-23.74-4.54-10.01,1.04-18.05,2.46-25.87,3.83-12.69,2.19-23.69,4.1-38.18,3.5,8.42,1.91,17.94,3.56,25.49,4.65,25.82,2.13,33.64,6.73,34.79,9.63,0,.05,0,.11,.05,.11-4.32,1.53-10.12,3.88-14.72,4.1-19.37,.98-49.12-9.63-49.12-9.63,0,0,11.93,5.2,17.29,6.78,5.42,1.53,22.43,6.56,22.43,6.56-3.12,.33-21.77,1.7-30.96,3.01,14.93-.55,19.53-.33,34.03-.44h2.46c10.94-.05,18.76,.11,27.84-1.42h-.05c1.2,.55,3.17,2.19,3.17,4.21,0,1.04-2.74,2.95-4.7,3.72-3.17,1.31-17.51,5.63-18.11,5.8,0,0,22.98-2.84,30.2-4.7,6.84-1.75,11.1-4.6,12.64-8.42,1.31-3.45,.11-6.56-.6-7.88,3.23-1.75,6.29-3.77,8.86-5.42,2.63-1.86,7.44-4.54,8.15-4.43"/></g></g></svg>