<?xml version="1.0" encoding="UTF-8"?><svg id="Layer_2" xmlns="http://www.w3.org/2000/svg" viewBox="0 0 355.08 93.62"><defs><style>.cls-1{fill:#fff;}</style></defs><g id="Layer_1-2"><g><path class="cls-1" d="M43.28,59.43v.95c-1.25,.28-2.84,1.23-3.75,4.12l-8.95,28.69h-.76l-8.23-24.39-7.54,24.39h-.76L3.26,63.4c-.86-2.45-2.27-2.98-3.26-3.03v-.95c1.27,.09,3.26,.14,5.06,.14,2.08,0,3.98-.05,5.11-.14v.95c-1.64,.12-2.31,.55-2.31,1.64,0,.58,.19,1.34,.51,2.33l6.94,21.11,5.73-18.33-1.25-3.72c-.81-2.45-1.94-2.98-2.8-3.03v-.95c1.13,.09,2.98,.14,4.6,.14,2.45,0,4.72-.05,6.06-.14v.95c-2.1,.09-3.24,.23-3.24,1.69,0,.55,.16,1.29,.49,2.29l6.8,21.06,5.85-18.31c.51-1.6,.76-2.84,.76-3.81,0-2.15-1.29-2.84-4.05-2.91v-.95c1.8,.09,3.79,.14,5.46,.14s2.61-.05,3.56-.14Z"/><path class="cls-1" d="M62.1,69.69c1.5,1.53,1.9,3.28,1.9,6.63v13.15c0,1.53,.37,2.24,1.46,2.24,.86,0,1.48-.44,2.13-.99l.53,.81c-1.32,.99-2.31,1.73-4.32,1.73-3.31,0-4.07-1.99-4.07-4.21-2.03,3.35-5.02,4.21-7.28,4.21-3.17,0-6.01-1.59-6.01-5.29s2.89-5.41,7.63-7.4c3.17-1.32,5.66-2.13,5.66-4.02v-2.94c0-3.98-1.94-4.76-4.39-4.76-1.62,0-3.61,.32-4.69,1.69,1.18,.3,2.22,1.34,2.22,2.89s-1.09,2.57-2.77,2.57-2.57-1.23-2.57-2.94c0-1.39,.9-2.47,2.22-3.38,1.34-.88,3.61-1.78,6.63-1.78,2.66,0,4.65,.69,5.73,1.78Zm-2.38,8.81c-.51,.76-1.55,1.25-4.53,2.71-2.08,.99-4.6,2.36-4.6,6.01,0,2.84,1.62,4.16,3.79,4.16,1.9,0,3.74-.99,5.34-3.58v-9.29Z"/><path class="cls-1" d="M94.24,69.69c1.18,1.29,1.64,2.98,1.64,6.22v12.64c0,2.64,.99,3.4,3.61,3.4v.99c-1.09-.05-3.61-.18-5.69-.18s-4.3,.14-5.29,.18v-.99c2.27,0,3.12-.76,3.12-3.4v-13.68c0-2.94-.42-5.46-3.84-5.46-3.98,0-6.63,3.79-6.63,8.62v10.52c0,2.64,.86,3.4,3.14,3.4v.99c-.99-.05-3.24-.18-5.32-.18s-4.6,.14-5.69,.18v-.99c2.61,0,3.61-.76,3.61-3.4v-14.82c0-2.84-.86-4.18-3.61-4.18v-.99c.99,.09,1.99,.14,2.94,.14,1.85,0,3.56-.18,4.92-.65v5.57c1.66-4.25,4.83-5.71,8.07-5.71,2.4,0,3.93,.65,5.02,1.78Z"/><path class="cls-1" d="M126.29,69.69c1.18,1.29,1.64,2.98,1.64,6.22v12.64c0,2.64,.99,3.4,3.61,3.4v.99c-1.09-.05-3.61-.18-5.69-.18s-4.3,.14-5.29,.18v-.99c2.27,0,3.12-.76,3.12-3.4v-13.68c0-2.94-.42-5.46-3.84-5.46-3.98,0-6.63,3.79-6.63,8.62v10.52c0,2.64,.86,3.4,3.14,3.4v.99c-.99-.05-3.24-.18-5.32-.18s-4.6,.14-5.69,.18v-.99c2.61,0,3.61-.76,3.61-3.4v-14.82c0-2.84-.86-4.18-3.61-4.18v-.99c.99,.09,1.99,.14,2.94,.14,1.85,0,3.56-.18,4.92-.65v5.57c1.66-4.25,4.83-5.71,8.07-5.71,2.4,0,3.93,.65,5.02,1.78Z"/><path class="cls-1" d="M145.25,88.56c0,2.64,.99,3.4,3.61,3.4v.99c-1.09-.05-3.56-.18-5.73-.18s-4.65,.14-5.73,.18v-.99c2.61,0,3.61-.76,3.61-3.4v-14.82c0-2.84-.86-4.18-3.61-4.18v-.99c.99,.09,1.99,.14,2.94,.14,1.85,0,3.56-.18,4.92-.65v20.5Zm.58-28.8c0,1.67-1.39,3.03-3.03,3.03s-3.03-1.36-3.03-3.03,1.36-3.03,3.03-3.03,3.03,1.39,3.03,3.03Z"/><path class="cls-1" d="M189.81,89.6c1.09,1.55,1.71,2.13,2.94,2.36v.99c-.6-.05-2.13-.18-3.35-.18-1.99,0-4.6,.14-5.59,.18v-.99c.97,0,1.87-.42,1.87-1.06,0-.16-.07-.35-.21-.55l-5.39-7.86-3.47,4.51c-.9,1.16-1.32,2.1-1.32,2.84,0,1.34,1.34,2.03,3.49,2.17v.95c-1.66-.09-3.93-.14-5.39-.14s-2.61,.05-3.61,.14v-.95c1.18-.14,2.36-.95,4.16-3.31l5.46-7.19-6.59-9.57c-1.27-1.85-1.8-2.24-2.94-2.38v-.99c.62,.05,2.13,.19,3.38,.19,1.99,0,4.58-.14,5.57-.19v.99c-.97,0-1.85,.39-1.85,1.06,0,.16,.05,.35,.18,.55l5.06,7.37,3.28-4.58c.92-1.29,1.43-2.26,1.43-2.98,0-.88-.83-1.34-2.71-1.48v-.95c1.64,.09,2.5,.14,3.98,.14s2.59-.05,3.58-.14v.95c-1.18,.14-2.64,1.22-4.16,3.33l-4.79,6.61,6.96,10.15Z"/><path class="cls-1" d="M246.03,60.38c-3.21,.14-3.84,.62-3.84,4.07v23.49c0,3.44,.62,3.93,3.84,4.07v.95c-1.32-.09-3.58-.14-6.06-.14-2.17,0-4.53,.05-6.01,.14v-.95c3.21-.14,3.84-.62,3.84-4.07v-11.37h-15.4v11.37c0,3.44,.62,3.93,3.84,4.07v.95c-1.46-.09-3.84-.14-6.01-.14-2.45,0-4.74,.05-6.06,.14v-.95c3.21-.14,3.84-.62,3.84-4.07v-23.49c0-3.45-.62-3.93-3.84-4.07v-.95c1.32,.09,3.61,.14,6.06,.14,2.17,0,4.55-.05,6.01-.14v.95c-3.21,.14-3.84,.62-3.84,4.07v11.17h15.4v-11.17c0-3.45-.62-3.93-3.84-4.07v-.95c1.48,.09,3.84,.14,6.01,.14,2.47,0,4.74-.05,6.06-.14v.95Z"/><path class="cls-1" d="M269.08,69.69c1.5,1.53,1.9,3.28,1.9,6.63v13.15c0,1.53,.37,2.24,1.46,2.24,.86,0,1.48-.44,2.13-.99l.53,.81c-1.32,.99-2.31,1.73-4.32,1.73-3.31,0-4.07-1.99-4.07-4.21-2.03,3.35-5.02,4.21-7.28,4.21-3.17,0-6.01-1.59-6.01-5.29s2.89-5.41,7.63-7.4c3.17-1.32,5.66-2.13,5.66-4.02v-2.94c0-3.98-1.94-4.76-4.39-4.76-1.62,0-3.61,.32-4.69,1.69,1.18,.3,2.22,1.34,2.22,2.89s-1.09,2.57-2.77,2.57-2.57-1.23-2.57-2.94c0-1.39,.9-2.47,2.22-3.38,1.34-.88,3.61-1.78,6.63-1.78,2.66,0,4.65,.69,5.73,1.78Zm-2.38,8.81c-.51,.76-1.55,1.25-4.53,2.71-2.08,.99-4.6,2.36-4.6,6.01,0,2.84,1.62,4.16,3.79,4.16,1.9,0,3.75-.99,5.34-3.58v-9.29Z"/><path class="cls-1" d="M301.22,69.69c1.18,1.29,1.64,2.98,1.64,6.22v12.64c0,2.64,.99,3.4,3.61,3.4v.99c-1.09-.05-3.61-.18-5.69-.18s-4.3,.14-5.29,.18v-.99c2.27,0,3.12-.76,3.12-3.4v-13.68c0-2.94-.42-5.46-3.84-5.46-3.98,0-6.63,3.79-6.63,8.62v10.52c0,2.64,.86,3.4,3.14,3.4v.99c-.99-.05-3.24-.18-5.32-.18s-4.6,.14-5.69,.18v-.99c2.61,0,3.61-.76,3.61-3.4v-14.82c0-2.84-.85-4.18-3.61-4.18v-.99c.99,.09,1.99,.14,2.94,.14,1.85,0,3.56-.18,4.92-.65v5.57c1.66-4.25,4.83-5.71,8.07-5.71,2.4,0,3.93,.65,5.02,1.78Z"/><path class="cls-1" d="M333.88,87.79c0,2.84,.86,4.16,3.61,4.16v.99c-.99-.09-1.99-.14-2.94-.14-1.85,0-3.56,.18-4.92,.67v-4.21c-1.16,2.82-3.44,4.35-6.73,4.35-5.92,0-9.71-4.23-9.66-12.83-.05-8.62,5.02-12.88,10.7-12.88,2.24,0,4.46,.79,5.69,2.8v-9.2c0-2.84-.86-4.16-3.61-4.16v-.99c.99,.09,1.99,.14,2.94,.14,1.85,0,3.56-.19,4.92-.67v31.97Zm-4.25-1.06v-14.08c-.92-2.57-2.84-3.65-5.29-3.65-3.74,0-6.54,3.79-6.5,11.79-.05,7.65,2.22,11.4,6.43,11.4,2.38,0,4.62-1.87,5.36-5.46Z"/><path class="cls-1" d="M351.48,88.56c0,2.64,.99,3.4,3.61,3.4v.99c-1.09-.05-3.56-.18-5.73-.18s-4.65,.14-5.73,.18v-.99c2.61,0,3.61-.76,3.61-3.4v-14.82c0-2.84-.85-4.18-3.61-4.18v-.99c.99,.09,1.99,.14,2.94,.14,1.85,0,3.56-.18,4.92-.65v20.5Zm.58-28.8c0,1.67-1.39,3.03-3.03,3.03s-3.03-1.36-3.03-3.03,1.36-3.03,3.03-3.03,3.03,1.39,3.03,3.03Z"/></g><g><path class="cls-1" d="M185.9,17.26l-3.54,4.31-5.57-10.01c-.27-.49-.97-.52-1.28-.04l-6.98,10.71L156.64,.9c2.9-.77,5.96,.43,7.56,2.97l6.21,9.83c.37,.59,1.23,.59,1.61,0l3.19-4.91-4.43-7.75c2.69-1.2,5.85-.16,7.3,2.4l7.83,13.82Z"/><path class="cls-1" d="M193.23,5.39l-5.67,9.04c-.9-.56-1.14-1.76-.53-2.63l2.04-2.9c.52-.73,.55-1.7,.09-2.47l-3.26-5.46,3.51-.86c.28-.07,.56-.1,.84-.1,1.19,0,2.33,.61,2.99,1.66,.71,1.14,.7,2.59,0,3.72Z"/><path class="cls-1" d="M169.18,23l3.54-4.31,5.57,10.01c.27,.49,.97,.52,1.28,.04l6.98-10.71,11.9,21.32c-2.9,.77-5.96-.43-7.56-2.97l-6.21-9.83c-.37-.59-1.23-.59-1.61,0l-3.19,4.91,4.43,7.75c-2.69,1.2-5.85,.16-7.3-2.4l-7.83-13.82Z"/><path class="cls-1" d="M161.85,34.88l5.67-9.04c.9,.56,1.14,1.76,.53,2.63l-2.04,2.9c-.52,.73-.55,1.7-.09,2.47l3.26,5.46-3.51,.86c-.28,.07-.56,.1-.84,.1-1.19,0-2.33-.61-2.99-1.66-.71-1.14-.7-2.59,0-3.72Z"/></g></g></svg>