<?xml version="1.0" encoding="UTF-8"?><svg id="Layer_2" xmlns="http://www.w3.org/2000/svg" viewBox="0 0 45.79 44.11"><defs><style>.cls-1{fill:#050505;}</style></defs><g id="Layer_2-2"><g id="Layer_1-2"><g><path class="cls-1" d="M32.06,18.91l-3.87,4.72-6.1-10.97c-.3-.54-1.07-.56-1.4-.05l-7.65,11.73L0,.99c3.18-.85,6.53,.47,8.29,3.25l6.8,10.77c.41,.65,1.35,.65,1.77,0l3.49-5.38L15.49,1.14c2.94-1.31,6.4-.17,7.99,2.63,0,0,8.58,15.14,8.58,15.14Z"/><path class="cls-1" d="M40.09,5.9l-6.21,9.9c-.99-.62-1.25-1.93-.58-2.88l2.24-3.18c.56-.8,.6-1.86,.1-2.7l-3.57-5.98,3.84-.95c.31-.07,.62-.11,.92-.11,1.31,0,2.56,.67,3.27,1.82,.78,1.25,.77,2.83,0,4.08h0Z"/><path class="cls-1" d="M13.74,25.2l3.87-4.72,6.1,10.97c.3,.54,1.07,.56,1.4,.05l7.65-11.73,13.03,23.36c-3.18,.85-6.53-.47-8.29-3.25l-6.8-10.77c-.41-.65-1.35-.65-1.77,0l-3.49,5.38,4.85,8.5c-2.94,1.31-6.4,.17-7.99-2.63l-8.58-15.14,.02-.02Z"/><path class="cls-1" d="M5.71,38.21l6.21-9.9c.99,.62,1.25,1.93,.58,2.88l-2.24,3.18c-.56,.8-.6,1.86-.1,2.7l3.57,5.98-3.84,.95c-.31,.07-.62,.11-.92,.11-1.31,0-2.56-.67-3.27-1.82-.78-1.25-.77-2.83,0-4.08h.01Z"/></g></g></g></svg>