<?xml version="1.0" encoding="UTF-8"?><svg id="Layer_2" xmlns="http://www.w3.org/2000/svg" viewBox="0 0 349.63 104.84"><g id="Layer_1-2"><g><path d="M52.36,104.84C23.17,104.74-.1,81.27,0,52.05,.1,23.32,23.78-.15,52.54,0c28.54,.15,52.14,22.87,52.29,52.53,.14,28.79-23.66,52.41-52.47,52.31Zm-6.63-77.15c-9.24,.11-16.32,.78-23.26,2.56-1.42,.36-2.91,.73-4.16,1.47-2.07,1.22-2.66,3.8-1.67,5.99,1.02,2.26,3.36,3.38,5.9,2.66,6.07-1.73,12.27-2.55,18.56-2.77,9.71-.34,19.28,.56,28.65,3.18,4.87,1.36,9.5,3.32,13.94,5.77,2.41,1.33,5.31,.38,6.53-1.91,1.29-2.41,.55-5.3-1.87-6.64-2.48-1.36-5-2.7-7.61-3.77-11.88-4.87-24.35-6.54-35.01-6.53Zm-2.98,18.05c-1.62,.1-4.18,.2-6.72,.43-4.56,.41-9.06,1.2-13.42,2.64-.71,.23-1.43,.71-1.92,1.28-1.23,1.39-1.27,3.29-.26,4.82,1.04,1.57,2.83,2.2,4.83,1.61,8.95-2.62,18.06-3.1,27.26-1.97,8.79,1.07,17.13,3.57,24.78,8.15,1.99,1.19,4.43,.52,5.61-1.42,1.16-1.91,.53-4.38-1.45-5.61-.78-.48-1.58-.92-2.38-1.36-11.05-5.94-22.94-8.39-36.33-8.58Zm-20.82,22.64c-.03,2.13,1.79,3.65,3.9,3.28,3.32-.58,6.63-1.26,9.97-1.69,7.06-.91,14.1-.76,21.08,.74,5.31,1.14,10.28,3.16,14.97,5.92,1.77,1.04,3.72,.54,4.67-1.12,.91-1.58,.34-3.51-1.38-4.54-7.45-4.48-15.54-6.99-24.18-7.79-5.27-.49-10.54-.46-15.77,.25-3.59,.49-7.15,1.18-10.71,1.86-1.63,.31-2.54,1.52-2.56,3.07Z"/><path d="M318.82,65.3c2.06-5.9,4.04-11.55,6.02-17.2,.81-2.32,1.65-4.63,2.43-6.96,.22-.64,.54-.89,1.23-.88,2.43,.04,4.86,.01,7.29,.01,1.3,0,1.43,.2,.94,1.46-4.06,10.49-8.11,20.98-12.2,31.46-1.02,2.61-1.99,5.26-3.26,7.75-2.88,5.63-6.63,7.1-12.47,6.65-2.27-.17-4.36-.94-6.38-1.94-.6-.3-.78-.62-.47-1.26,.83-1.73,1.63-3.48,2.39-5.25,.33-.75,.7-.92,1.45-.53,1.63,.85,3.35,1.3,5.2,.9,1.23-.26,2.97-2.03,3.17-3.25,.04-.22-.07-.49-.17-.71-3.69-8.84-7.37-17.68-11.08-26.51-.12-.29-.47-.67-.73-.68-2.33-.05-4.66-.03-7.11-.03v1.18c0,8.62,0,17.23,0,25.85,0,1.36-.01,1.37-1.37,1.37-2.21,0-4.42,0-6.63,0-1.27,0-1.27,0-1.27-1.26,0-8.62,0-17.23,0-25.85,0-.38,0-.75,0-1.3-1.17,0-2.29-.04-3.41,.01-.81,.03-1.13-.24-1.12-1.08,.04-2.02,.04-4.04,0-6.06-.01-.78,.27-1.09,1.05-1.07,1.13,.03,2.25,0,3.39,0,.09-1.59,.08-3.07,.28-4.53,.77-5.75,4.33-9,10.12-9.31,2.51-.13,4.97,.16,7.4,.81,.62,.17,.88,.45,.87,1.11-.03,1.99,0,3.98-.01,5.96,0,1.01-.2,1.05-1.22,.84-1.5-.31-3.03-.64-4.56-.67-2.02-.04-3.16,1.02-3.51,3.01-.16,.89-.15,1.81-.23,2.84,.44,.02,.77,.05,1.1,.05,3.95,0,7.89,.04,11.83-.02,1.05-.02,1.54,.29,1.92,1.29,2.85,7.58,5.77,15.13,8.67,22.69,.11,.28,.24,.56,.46,1.07Z"/><path d="M170.62,72.36c0,.61,0,.95,0,1.29,0,4.2,0,8.39,0,12.59,0,1.16-.06,1.21-1.24,1.21-2.34,0-4.67-.03-7.01,.02-.8,.02-1.03-.27-1.03-1.04,.01-15.05,.02-30.1,0-45.16,0-.78,.27-1.07,1.04-1.06,2.4,.03,4.8,.03,7.19,0,.78,0,1.07,.33,1.05,1.08-.03,1.12,0,2.24,0,3.5,.81-.76,1.46-1.44,2.17-2.04,4.3-3.55,9.21-4.16,14.33-2.45,7.22,2.41,10.74,7.88,11.72,15.17,.59,4.38,.06,8.62-1.89,12.63-3.78,7.77-13.06,11.43-20.89,8.24-2.05-.84-3.75-2.18-5.45-3.99Zm19.04-14.45c-.09-.58-.16-1.75-.47-2.87-1-3.64-3.18-6.25-6.95-7.12-3.62-.83-6.76,.25-9.21,3.04-3.05,3.46-3.49,9.11-1.13,13.4,2.84,5.17,9.57,6.56,14.12,2.82,2.7-2.22,3.6-5.3,3.66-9.28Z"/><path d="M140.82,77.43c-7.39-.05-13.89-2.47-19.52-7.26-.64-.54-.74-.96-.15-1.63,1.44-1.63,2.85-3.29,4.21-4.99,.59-.75,1.02-.79,1.75-.16,2.78,2.4,5.85,4.31,9.49,5.08,2.96,.62,5.94,.88,8.85-.28,2.37-.95,3.45-2.76,3.25-5.28-.13-1.65-1.04-2.85-2.47-3.44-2.17-.9-4.42-1.66-6.68-2.29-3.31-.93-6.66-1.67-9.77-3.2-4.61-2.28-7.07-5.9-7.21-11.09-.14-5.28,1.94-9.36,6.4-12.18,3.52-2.22,7.44-2.87,11.52-2.68,5.77,.26,10.98,2.07,15.57,5.65,.71,.56,.8,.98,.25,1.7-1.23,1.64-2.39,3.33-3.58,5-.83,1.17-.84,1.17-1.99,.38-2.46-1.7-5.06-3.11-7.99-3.78-2.42-.55-4.86-.75-7.28,.13-2.8,1.03-4.09,3.38-3.29,6.03,.39,1.31,1.31,2.22,2.51,2.67,2.44,.91,4.93,1.74,7.43,2.45,3.37,.96,6.72,1.9,9.82,3.61,8.74,4.82,7.35,16.9,1.59,21.52-3.34,2.68-7.38,4.04-12.71,4.06Z"/><path d="M220.66,39.46c9.4,.09,16.8,5.58,19.1,13.78,3.06,10.95-3.77,21.87-15,23.96-9.39,1.75-18.47-2.99-21.79-11.55-4.67-12.03,3.07-24.29,15.09-25.95,1.03-.14,2.07-.2,2.6-.25Zm-9.81,19.02c.12,.91,.15,1.83,.36,2.71,.96,4.01,3.33,6.82,7.38,7.81,3.94,.96,7.51,.03,10.16-3.19,2.69-3.26,3.07-7.04,1.85-10.98-1.73-5.55-7.5-8.42-13-6.55-4.13,1.41-6.76,5.41-6.75,10.2Z"/><path d="M254.92,48.33v1.06c0,5.11,0,10.23,0,15.34,0,.56,.02,1.14,.14,1.69,.33,1.55,1.31,2.37,2.9,2.49,1.76,.13,3.45-.17,5.06-.91,.98-.45,1.24-.27,1.25,.82,.01,1.89-.01,3.79,.02,5.68,0,.63-.23,.99-.78,1.25-4.14,1.95-8.39,2.27-12.65,.54-3.15-1.28-4.53-3.96-5-7.17-.15-1.06-.2-2.14-.2-3.21-.02-5.46,0-10.92,0-16.38v-1.2c-1.17,0-2.29-.04-3.41,.01-.82,.04-1.13-.26-1.11-1.09,.04-1.96,.05-3.91,0-5.87-.03-.94,.37-1.22,1.24-1.18,1.06,.05,2.13,.01,3.29,.01,0-1.43,0-2.75,0-4.07,0-1.58,.01-3.16,0-4.73,0-.58,.2-.92,.8-.92,2.56,0,5.11,0,7.67,0,.68,0,.81,.44,.81,1.02-.01,2.52,0,5.05,0,7.57,0,.34,0,.68,0,1.12,1.76,0,3.43,0,5.09,0,1.14,0,2.27,.02,3.41,0,.73-.02,1.01,.28,1,1.02-.03,2.05-.03,4.1,0,6.15,.01,.78-.33,.97-1.03,.96-2.46-.02-4.92,0-7.39,0-.34,0-.68,0-1.09,0Z"/><path d="M268.21,58.47c0-5.65,0-11.3,0-16.94,0-1.22,.08-1.31,1.26-1.31,2.3,0,4.61,.02,6.91-.01,.8-.01,1.11,.27,1.11,1.1-.02,11.45-.02,22.91,0,34.36,0,.76-.24,1.09-1.03,1.08-2.4-.03-4.8-.03-7.19,0-.85,.01-1.07-.36-1.07-1.15,.02-5.71,.01-11.42,.01-17.13Z"/><path d="M273,24.14c3.24,.07,5.75,2.69,5.68,5.95-.06,3.21-2.72,5.7-6.01,5.62-3.19-.08-5.66-2.75-5.59-6.05,.07-3.06,2.78-5.59,5.92-5.53Z"/><path d="M338.24,45.85c-.02-3.09,2.49-5.63,5.63-5.69,3.15-.06,5.76,2.56,5.76,5.78,0,3.05-2.61,5.61-5.72,5.62-3.23,0-5.65-2.43-5.67-5.7Zm.58,0c.03,2.99,2.2,5.17,5.13,5.15,2.81-.02,5.14-2.36,5.11-5.14-.02-2.9-2.34-5.21-5.17-5.16-2.86,.05-5.1,2.32-5.07,5.15Z"/><path d="M341.7,42.74c.91,0,1.75-.02,2.59,0,1.26,.03,1.98,.49,2.23,1.38,.25,.91-.12,1.62-1.25,2.35,.47,.68,.94,1.36,1.41,2.05-1.21,.52-1.61-.34-2.04-1.06-.41-.69-.88-1.14-1.84-.78v1.88h-1.1v-5.83Zm1.12,2.86c.6,0,1.17,.12,1.64-.04,.04-.02,.09-.04,.13-.06,.64-.36,.62-1.34-.03-1.7-.05-.03-.09-.05-.14-.06-.47-.16-1.04-.04-1.61-.04v1.89Z"/></g></g></svg>